<?xml version="1.0" encoding="UTF-8" standalone="no"?>
<!-- Generator: Adobe Illustrator 12.0.0, SVG Export Plug-In . SVG Version: 6.00 Build 51448)  -->
<svg xmlns:dc="http://purl.org/dc/elements/1.1/" xmlns:cc="http://creativecommons.org/ns#" xmlns:rdf="http://www.w3.org/1999/02/22-rdf-syntax-ns#" xmlns:svg="http://www.w3.org/2000/svg" xmlns="http://www.w3.org/2000/svg" xmlns:sodipodi="http://sodipodi.sourceforge.net/DTD/sodipodi-0.dtd" xmlns:inkscape="http://www.inkscape.org/namespaces/inkscape" version="1.1" id="Laag_1" width="266.467" height="266.455" viewBox="0 0 266.467 266.455" overflow="visible" enable-background="new 0 0 266.467 266.455" xml:space="preserve" inkscape:version="0.48.2 r9819" sodipodi:docname="CircleN.svg"><metadata id="metadata3017"><rdf:RDF><cc:Work rdf:about=""><dc:format>image/svg+xml</dc:format><dc:type rdf:resource="http://purl.org/dc/dcmitype/StillImage"/><dc:title/></cc:Work></rdf:RDF></metadata><defs id="defs3015"/><sodipodi:namedview pagecolor="#ffffff" bordercolor="#666666" borderopacity="1" objecttolerance="10" gridtolerance="10" guidetolerance="10" inkscape:pageopacity="0" inkscape:pageshadow="2" inkscape:window-width="1280" inkscape:window-height="778" id="namedview3013" showgrid="false" inkscape:zoom="1.7714061" inkscape:cx="174.41386" inkscape:cy="132.32087" inkscape:window-x="-8" inkscape:window-y="-8" inkscape:window-maximized="1" inkscape:current-layer="Laag_1"/>
<g id="g3042"><path fill="#fff" transform="translate(-1.1963194e-5,0)" id="path3007" d="M 133.25 47.46875 C 85.891002 47.46875 47.5 85.845752 47.5 133.21875 C 47.5 180.56575 85.890002 218.96875 133.25 218.96875 C 180.595 218.96875 218.96875 180.56575 218.96875 133.21875 C 218.96875 85.845752 180.596 47.46875 133.25 47.46875 z M 133.25 63.0625 C 171.989 63.0625 203.375 94.466752 203.375 133.21875 C 203.375 171.94375 171.988 203.375 133.25 203.375 C 94.497002 203.375 63.09375 171.94375 63.09375 133.21875 C 63.09375 94.465752 94.498002 63.0625 133.25 63.0625 z " style="stroke:#fff;stroke-width:0.99999994"/><polygon fill="#fff" stroke-miterlimit="500" points="242.367,78.658 257.958,78.658 257.958,8.485 190.605,28.143 194.967,43.102 229.892,32.923 145.083,146.012 127.627,86.124 8.511,244.947 18.259,257.945 121.384,120.445 138.853,180.306 242.367,42.269 " id="polygon3011" style="stroke:#fff;stroke-width:0.7087;stroke-linecap:round;stroke-linejoin:round;stroke-miterlimit:500"/></g>
</svg>